<svg style="display: none;" xmlns="http://www.w3.org/2000/svg">
  <symbolwidth="22" height="22"  viewBox='0 0 22 22' id='categories'>
    <path d="M8.66667 9.08333H1.66667C1.55616 9.08333 1.45018 9.03943 1.37204 8.96129C1.2939 8.88315 1.25 8.77717 1.25 8.66667V1.66667C1.25 1.55616 1.2939 1.45018 1.37204 1.37204C1.45018 1.2939 1.55616 1.25 1.66667 1.25H8.66667C8.77717 1.25 8.88315 1.2939 8.96129 1.37204C9.03943 1.45018 9.08333 1.55616 9.08333 1.66667V8.66667C9.08333 8.77717 9.03943 8.88315 8.96129 8.96129C8.88315 9.03943 8.77717 9.08333 8.66667 9.08333ZM20.3333 9.08333H13.3333C13.2228 9.08333 13.1168 9.03943 13.0387 8.96129C12.9606 8.88315 12.9167 8.77717 12.9167 8.66667V1.66667C12.9167 1.55616 12.9606 1.45018 13.0387 1.37204C13.1168 1.2939 13.2228 1.25 13.3333 1.25H20.3333C20.4438 1.25 20.5498 1.2939 20.628 1.37204C20.7061 1.45018 20.75 1.55616 20.75 1.66667V8.66667C20.75 8.77717 20.7061 8.88315 20.628 8.96129C20.5498 9.03943 20.4438 9.08333 20.3333 9.08333ZM8.66667 20.75H1.66667C1.55616 20.75 1.45018 20.7061 1.37204 20.628C1.2939 20.5498 1.25 20.4438 1.25 20.3333V13.3333C1.25 13.2228 1.2939 13.1168 1.37204 13.0387C1.45018 12.9606 1.55616 12.9167 1.66667 12.9167H8.66667C8.77717 12.9167 8.88315 12.9606 8.96129 13.0387C9.03943 13.1168 9.08333 13.2228 9.08333 13.3333V20.3333C9.08333 20.4438 9.03943 20.5498 8.96129 20.628C8.88315 20.7061 8.77717 20.75 8.66667 20.75ZM20.75 16.8333C20.75 18.9928 18.9928 20.75 16.8333 20.75C14.6739 20.75 12.9167 18.9928 12.9167 16.8333C12.9167 14.6739 14.6739 12.9167 16.8333 12.9167C18.9928 12.9167 20.75 14.6739 20.75 16.8333Z" stroke="#FFBCA2" stroke-width="1.5"/>
  </symbol>
  <symbol width="22" height="22" viewBox="0 0 22 22" id='score'>
    <path d="M21.9077 8.26094C21.8025 7.92078 21.6091 7.61758 21.3488 7.38492C21.0885 7.15226 20.7716 6.99921 20.433 6.94272L15.1205 6.04277L12.6578 1.05433C12.5009 0.736759 12.2632 0.470365 11.9706 0.284378C11.6781 0.0983913 11.342 0 10.9993 0C10.6567 0 10.3206 0.0983913 10.028 0.284378C9.73549 0.470365 9.49773 0.736759 9.34086 1.05433L6.87814 6.04277L1.56574 6.94272C1.22752 7.0001 0.911003 7.15348 0.650909 7.38604C0.390815 7.61859 0.1972 7.92133 0.0913058 8.26104C-0.0145881 8.60074 -0.0286682 8.96429 0.0506104 9.31179C0.129889 9.65929 0.299463 9.97731 0.540726 10.231L4.33114 14.2139L3.51072 19.7585C3.45808 20.1117 3.49989 20.4731 3.63156 20.8031C3.76323 21.1331 3.97966 21.4188 4.25704 21.6289C4.53441 21.839 4.862 21.9652 5.20376 21.9938C5.54553 22.0223 5.88823 21.9521 6.19417 21.7908L10.9993 19.2639L15.8046 21.7908C16.1106 21.9518 16.4532 22.0218 16.7949 21.9931C17.1365 21.9643 17.4639 21.8381 17.7412 21.6281C18.0185 21.4181 18.2349 21.1325 18.3666 20.8027C18.4984 20.4729 18.5404 20.1116 18.4881 19.7585L17.6677 14.2139L21.4581 10.231C21.7001 9.97781 21.8702 9.65978 21.9496 9.31208C22.0289 8.96438 22.0144 8.60058 21.9077 8.26094ZM20.4167 9.15434L16.1052 13.6849L17.0385 19.9917C17.0501 20.0672 17.0414 20.1446 17.0133 20.2153C16.9853 20.286 16.939 20.3472 16.8797 20.3922C16.8203 20.4371 16.7502 20.4641 16.677 20.47C16.6038 20.476 16.5305 20.4607 16.4652 20.4259L10.9993 17.5516L5.53344 20.426C5.4681 20.4608 5.39479 20.4761 5.32164 20.4701C5.24848 20.4642 5.17833 20.4372 5.11897 20.3923C5.0596 20.3473 5.01334 20.2861 4.9853 20.2154C4.95726 20.1447 4.94854 20.0673 4.96011 19.9918L5.89351 13.6849L1.58201 9.1543C1.53053 9.10007 1.49435 9.03213 1.47744 8.9579C1.46054 8.88367 1.46356 8.80602 1.48618 8.73346C1.50879 8.6609 1.55013 8.59624 1.60566 8.54654C1.66119 8.49684 1.72878 8.46403 1.801 8.45171L7.84371 7.42807L10.645 1.75391C10.6785 1.68604 10.7293 1.6291 10.7918 1.58934C10.8543 1.54959 10.9261 1.52856 10.9993 1.52856C11.0726 1.52856 11.1444 1.54959 11.2069 1.58934C11.2694 1.6291 11.3202 1.68604 11.3537 1.75391L14.155 7.42807L20.1977 8.45171C20.2699 8.46403 20.3375 8.49684 20.393 8.54654C20.4485 8.59624 20.4899 8.6609 20.5125 8.73346C20.5351 8.80602 20.5381 8.88367 20.5212 8.9579C20.5043 9.03213 20.4682 9.10007 20.4167 9.1543L20.4167 9.15434Z" fill="white"/>
  </symbol>
  <symbol width="22" height="24" viewBox="0 0 22 24" id='home'>
    <path d="M9.30833 0.953728C9.78173 0.554754 10.3809 0.335938 11 0.335938C11.6191 0.335938 12.2183 0.554754 12.6917 0.953728L20.5667 7.59439C21.1582 8.09373 21.5 8.82756 21.5 9.60106V21.0379C21.5 21.5794 21.2849 22.0987 20.902 22.4816C20.5191 22.8645 19.9998 23.0796 19.4583 23.0796H15.375C14.8335 23.0796 14.3142 22.8645 13.9313 22.4816C13.5484 22.0987 13.3333 21.5794 13.3333 21.0379V14.6212C13.3333 14.5439 13.3026 14.4697 13.2479 14.415C13.1932 14.3603 13.119 14.3296 13.0417 14.3296H8.95833C8.88098 14.3296 8.80679 14.3603 8.75209 14.415C8.6974 14.4697 8.66667 14.5439 8.66667 14.6212V21.0379C8.66667 21.5794 8.45156 22.0987 8.06868 22.4816C7.68579 22.8645 7.16648 23.0796 6.625 23.0796H2.54167C2.27355 23.0796 2.00806 23.0267 1.76035 22.9241C1.51265 22.8215 1.28758 22.6712 1.09799 22.4816C0.908404 22.292 0.758016 22.0669 0.655413 21.8192C0.552809 21.5715 0.5 21.306 0.5 21.0379V9.60106C0.5 8.82756 0.841833 8.09373 1.43333 7.59439L9.30833 0.953728ZM11.5635 2.29189C11.4058 2.15911 11.2062 2.08629 11 2.08629C10.7938 2.08629 10.5942 2.15911 10.4365 2.29189L2.5615 8.93139C2.46405 9.01343 2.38568 9.11576 2.33188 9.23122C2.27807 9.34669 2.25013 9.47251 2.25 9.59989V21.0367C2.25 21.1977 2.38067 21.3284 2.54167 21.3284H6.625C6.70235 21.3284 6.77654 21.2977 6.83124 21.243C6.88594 21.1883 6.91667 21.1141 6.91667 21.0367V14.6201C6.91667 13.4919 7.83133 12.5784 8.95833 12.5784H13.0417C14.1687 12.5784 15.0833 13.4919 15.0833 14.6201V21.0367C15.0833 21.1977 15.214 21.3284 15.375 21.3284H19.4583C19.5357 21.3284 19.6099 21.2977 19.6646 21.243C19.7193 21.1883 19.75 21.1141 19.75 21.0367V9.60106C19.7499 9.47367 19.7219 9.34785 19.6681 9.23239C19.6143 9.11692 19.536 9.0146 19.4385 8.93256L11.5635 2.29189Z" fill="white"/>
  </symbol>
  <symbol viewBox='' id=''>
  
  </symbol>
  <symbol viewBox='' id=''>
  
  </symbol>
  <symbol viewBox='' id=''>
  
  </symbol>
  <symbol viewBox='' id=''>
  
  </symbol>
  <symbol viewBox='' id=''>
  
  </symbol>
  <symbol viewBox='' id=''>
  
  </symbol>
</svg>